<mxfile host="app.diagrams.net" modified="2023-03-01T02:42:04.373Z" agent="5.0 (Macintosh; Intel Mac OS X 10_15_7) AppleWebKit/537.36 (KHTML, like Gecko) Chrome/109.0.0.0 Safari/537.36" etag="rqKkoD6N6MN85iEjRu0U" version="20.8.23" type="github">
  <diagram name="Page-1" id="13e1069c-82ec-6db2-03f1-153e76fe0fe0">
    <mxGraphModel dx="1004" dy="592" grid="1" gridSize="10" guides="1" tooltips="1" connect="1" arrows="1" fold="1" page="1" pageScale="1" pageWidth="1100" pageHeight="850" background="none" math="0" shadow="0">
      <root>
        <mxCell id="0" />
        <mxCell id="1" parent="0" />
        <mxCell id="7baba1c4bc27f4b0-2" value="应用客户端" style="shape=umlLifeline;perimeter=lifelinePerimeter;whiteSpace=wrap;html=1;container=1;collapsible=0;recursiveResize=0;outlineConnect=0;rounded=1;shadow=0;comic=0;labelBackgroundColor=none;strokeWidth=1;fontFamily=Verdana;fontSize=12;align=center;" parent="1" vertex="1">
          <mxGeometry x="260" y="80" width="100" height="630" as="geometry" />
        </mxCell>
        <mxCell id="qNvrEW012JE64xCaFdd--19" style="edgeStyle=none;rounded=0;orthogonalLoop=1;jettySize=auto;html=1;dashed=1;elbow=vertical;" edge="1" parent="7baba1c4bc27f4b0-2" source="7baba1c4bc27f4b0-10" target="7baba1c4bc27f4b0-2">
          <mxGeometry relative="1" as="geometry" />
        </mxCell>
        <mxCell id="7baba1c4bc27f4b0-10" value="" style="html=1;points=[];perimeter=orthogonalPerimeter;rounded=0;shadow=0;comic=0;labelBackgroundColor=none;strokeWidth=1;fontFamily=Verdana;fontSize=12;align=center;" parent="7baba1c4bc27f4b0-2" vertex="1">
          <mxGeometry x="45" y="100" width="10" height="530" as="geometry" />
        </mxCell>
        <mxCell id="7baba1c4bc27f4b0-3" value="应用服务端&lt;br style=&quot;border-color: var(--border-color);&quot;&gt;（低代码平台" style="shape=umlLifeline;perimeter=lifelinePerimeter;whiteSpace=wrap;html=1;container=1;collapsible=0;recursiveResize=0;outlineConnect=0;rounded=1;shadow=0;comic=0;labelBackgroundColor=none;strokeWidth=1;fontFamily=Verdana;fontSize=12;align=center;" parent="1" vertex="1">
          <mxGeometry x="420" y="80" width="100" height="630" as="geometry" />
        </mxCell>
        <mxCell id="7baba1c4bc27f4b0-13" value="" style="html=1;points=[];perimeter=orthogonalPerimeter;rounded=0;shadow=0;comic=0;labelBackgroundColor=none;strokeWidth=1;fontFamily=Verdana;fontSize=12;align=center;" parent="7baba1c4bc27f4b0-3" vertex="1">
          <mxGeometry x="45" y="120" width="10" height="30" as="geometry" />
        </mxCell>
        <mxCell id="qNvrEW012JE64xCaFdd--28" style="edgeStyle=none;rounded=0;orthogonalLoop=1;jettySize=auto;html=1;elbow=vertical;" edge="1" parent="7baba1c4bc27f4b0-3" source="qNvrEW012JE64xCaFdd--20" target="7baba1c4bc27f4b0-3">
          <mxGeometry relative="1" as="geometry" />
        </mxCell>
        <mxCell id="qNvrEW012JE64xCaFdd--20" value="" style="html=1;points=[];perimeter=orthogonalPerimeter;rounded=0;shadow=0;comic=0;labelBackgroundColor=none;strokeWidth=1;fontFamily=Verdana;fontSize=12;align=center;" vertex="1" parent="7baba1c4bc27f4b0-3">
          <mxGeometry x="45" y="290" width="10" height="285" as="geometry" />
        </mxCell>
        <mxCell id="7baba1c4bc27f4b0-4" value="教育平台" style="shape=umlLifeline;perimeter=lifelinePerimeter;whiteSpace=wrap;html=1;container=1;collapsible=0;recursiveResize=0;outlineConnect=0;rounded=1;shadow=0;comic=0;labelBackgroundColor=none;strokeWidth=1;fontFamily=Verdana;fontSize=12;align=center;" parent="1" vertex="1">
          <mxGeometry x="580" y="80" width="100" height="580" as="geometry" />
        </mxCell>
        <mxCell id="7baba1c4bc27f4b0-16" value="" style="html=1;points=[];perimeter=orthogonalPerimeter;rounded=0;shadow=0;comic=0;labelBackgroundColor=none;strokeWidth=1;fontFamily=Verdana;fontSize=12;align=center;" parent="7baba1c4bc27f4b0-4" vertex="1">
          <mxGeometry x="45" y="170" width="10" height="80" as="geometry" />
        </mxCell>
        <mxCell id="qNvrEW012JE64xCaFdd--23" value="" style="html=1;points=[];perimeter=orthogonalPerimeter;rounded=0;shadow=0;comic=0;labelBackgroundColor=none;strokeWidth=1;fontFamily=Verdana;fontSize=12;align=center;" vertex="1" parent="7baba1c4bc27f4b0-4">
          <mxGeometry x="45" y="310" width="10" height="80" as="geometry" />
        </mxCell>
        <mxCell id="qNvrEW012JE64xCaFdd--33" value="" style="html=1;points=[];perimeter=orthogonalPerimeter;rounded=0;shadow=0;comic=0;labelBackgroundColor=none;strokeWidth=1;fontFamily=Verdana;fontSize=12;align=center;" vertex="1" parent="7baba1c4bc27f4b0-4">
          <mxGeometry x="45" y="410" width="10" height="95" as="geometry" />
        </mxCell>
        <mxCell id="7baba1c4bc27f4b0-8" value="用户" style="shape=umlLifeline;perimeter=lifelinePerimeter;whiteSpace=wrap;html=1;container=1;collapsible=0;recursiveResize=0;outlineConnect=0;rounded=1;shadow=0;comic=0;labelBackgroundColor=none;strokeWidth=1;fontFamily=Verdana;fontSize=12;align=center;" parent="1" vertex="1">
          <mxGeometry x="100" y="80" width="100" height="580" as="geometry" />
        </mxCell>
        <mxCell id="7baba1c4bc27f4b0-9" value="" style="html=1;points=[];perimeter=orthogonalPerimeter;rounded=0;shadow=0;comic=0;labelBackgroundColor=none;strokeWidth=1;fontFamily=Verdana;fontSize=12;align=center;" parent="7baba1c4bc27f4b0-8" vertex="1">
          <mxGeometry x="45" y="100" width="10" height="440" as="geometry" />
        </mxCell>
        <mxCell id="7baba1c4bc27f4b0-11" value="打开应用" style="html=1;verticalAlign=bottom;endArrow=block;entryX=0;entryY=0;labelBackgroundColor=none;fontFamily=Verdana;fontSize=12;edgeStyle=elbowEdgeStyle;elbow=vertical;" parent="1" source="7baba1c4bc27f4b0-9" target="7baba1c4bc27f4b0-10" edge="1">
          <mxGeometry relative="1" as="geometry">
            <mxPoint x="220" y="190" as="sourcePoint" />
          </mxGeometry>
        </mxCell>
        <mxCell id="7baba1c4bc27f4b0-14" value="检查用户状态" style="html=1;verticalAlign=bottom;endArrow=block;entryX=0;entryY=0;labelBackgroundColor=none;fontFamily=Verdana;fontSize=12;edgeStyle=elbowEdgeStyle;elbow=vertical;" parent="1" source="7baba1c4bc27f4b0-10" target="7baba1c4bc27f4b0-13" edge="1">
          <mxGeometry relative="1" as="geometry">
            <mxPoint x="370" y="200" as="sourcePoint" />
          </mxGeometry>
        </mxCell>
        <mxCell id="qNvrEW012JE64xCaFdd--2" value="教育号" style="shape=umlLifeline;perimeter=lifelinePerimeter;whiteSpace=wrap;html=1;container=1;collapsible=0;recursiveResize=0;outlineConnect=0;rounded=1;shadow=0;comic=0;labelBackgroundColor=none;strokeWidth=1;fontFamily=Verdana;fontSize=12;align=center;" vertex="1" parent="1">
          <mxGeometry x="730" y="80" width="100" height="580" as="geometry" />
        </mxCell>
        <mxCell id="qNvrEW012JE64xCaFdd--12" style="edgeStyle=none;rounded=0;orthogonalLoop=1;jettySize=auto;html=1;" edge="1" parent="qNvrEW012JE64xCaFdd--2" source="qNvrEW012JE64xCaFdd--8" target="7baba1c4bc27f4b0-37">
          <mxGeometry relative="1" as="geometry" />
        </mxCell>
        <mxCell id="qNvrEW012JE64xCaFdd--8" value="" style="html=1;points=[];perimeter=orthogonalPerimeter;rounded=0;shadow=0;comic=0;labelBackgroundColor=none;strokeWidth=1;fontFamily=Verdana;fontSize=12;align=center;" vertex="1" parent="qNvrEW012JE64xCaFdd--2">
          <mxGeometry x="45" y="180" width="10" height="110" as="geometry" />
        </mxCell>
        <mxCell id="qNvrEW012JE64xCaFdd--13" value="" style="edgeStyle=none;rounded=0;orthogonalLoop=1;jettySize=auto;html=1;" edge="1" parent="qNvrEW012JE64xCaFdd--2" source="7baba1c4bc27f4b0-37" target="qNvrEW012JE64xCaFdd--8">
          <mxGeometry relative="1" as="geometry" />
        </mxCell>
        <mxCell id="7baba1c4bc27f4b0-37" value="" style="html=1;points=[];perimeter=orthogonalPerimeter;rounded=0;shadow=0;comic=0;labelBackgroundColor=none;strokeWidth=1;fontFamily=Verdana;fontSize=12;align=center;" parent="qNvrEW012JE64xCaFdd--2" vertex="1">
          <mxGeometry x="55" y="220" width="10" height="60" as="geometry" />
        </mxCell>
        <mxCell id="qNvrEW012JE64xCaFdd--15" value="" style="endArrow=classic;html=1;rounded=0;exitX=1;exitY=0.355;exitDx=0;exitDy=0;exitPerimeter=0;edgeStyle=entityRelationEdgeStyle;elbow=vertical;" edge="1" parent="qNvrEW012JE64xCaFdd--2" source="qNvrEW012JE64xCaFdd--8" target="7baba1c4bc27f4b0-37">
          <mxGeometry width="50" height="50" relative="1" as="geometry">
            <mxPoint x="-200" y="380" as="sourcePoint" />
            <mxPoint x="70" y="300" as="targetPoint" />
          </mxGeometry>
        </mxCell>
        <mxCell id="qNvrEW012JE64xCaFdd--16" value="回调地址" style="edgeLabel;html=1;align=center;verticalAlign=middle;resizable=0;points=[];" vertex="1" connectable="0" parent="qNvrEW012JE64xCaFdd--15">
          <mxGeometry x="-0.0073" relative="1" as="geometry">
            <mxPoint as="offset" />
          </mxGeometry>
        </mxCell>
        <mxCell id="qNvrEW012JE64xCaFdd--26" value="" style="html=1;points=[];perimeter=orthogonalPerimeter;rounded=0;shadow=0;comic=0;labelBackgroundColor=none;strokeWidth=1;fontFamily=Verdana;fontSize=12;align=center;" vertex="1" parent="qNvrEW012JE64xCaFdd--2">
          <mxGeometry x="45" y="310" width="10" height="80" as="geometry" />
        </mxCell>
        <mxCell id="qNvrEW012JE64xCaFdd--34" value="" style="html=1;points=[];perimeter=orthogonalPerimeter;rounded=0;shadow=0;comic=0;labelBackgroundColor=none;strokeWidth=1;fontFamily=Verdana;fontSize=12;align=center;" vertex="1" parent="qNvrEW012JE64xCaFdd--2">
          <mxGeometry x="45" y="410" width="10" height="100" as="geometry" />
        </mxCell>
        <mxCell id="qNvrEW012JE64xCaFdd--39" style="edgeStyle=none;rounded=0;orthogonalLoop=1;jettySize=auto;html=1;entryX=1.3;entryY=0.784;entryDx=0;entryDy=0;entryPerimeter=0;elbow=vertical;dashed=1;" edge="1" parent="qNvrEW012JE64xCaFdd--2">
          <mxGeometry relative="1" as="geometry">
            <mxPoint x="42" y="470" as="sourcePoint" />
            <mxPoint x="-95" y="470" as="targetPoint" />
          </mxGeometry>
        </mxCell>
        <mxCell id="qNvrEW012JE64xCaFdd--40" value="返回用户信息" style="edgeLabel;html=1;align=center;verticalAlign=middle;resizable=0;points=[];" vertex="1" connectable="0" parent="qNvrEW012JE64xCaFdd--39">
          <mxGeometry x="-0.3139" y="-1" relative="1" as="geometry">
            <mxPoint x="-18" as="offset" />
          </mxGeometry>
        </mxCell>
        <mxCell id="qNvrEW012JE64xCaFdd--4" style="rounded=0;orthogonalLoop=1;jettySize=auto;html=1;dashed=1;" edge="1" parent="1" source="7baba1c4bc27f4b0-13" target="7baba1c4bc27f4b0-2">
          <mxGeometry relative="1" as="geometry">
            <mxPoint x="470" y="240" as="sourcePoint" />
            <Array as="points">
              <mxPoint x="380" y="220" />
            </Array>
          </mxGeometry>
        </mxCell>
        <mxCell id="qNvrEW012JE64xCaFdd--5" value="用户未登录" style="edgeLabel;html=1;align=center;verticalAlign=middle;resizable=0;points=[];" vertex="1" connectable="0" parent="qNvrEW012JE64xCaFdd--4">
          <mxGeometry x="-0.3076" y="1" relative="1" as="geometry">
            <mxPoint as="offset" />
          </mxGeometry>
        </mxCell>
        <mxCell id="qNvrEW012JE64xCaFdd--6" style="rounded=0;orthogonalLoop=1;jettySize=auto;html=1;exitX=0.889;exitY=0.152;exitDx=0;exitDy=0;exitPerimeter=0;entryX=0;entryY=0.125;entryDx=0;entryDy=0;entryPerimeter=0;" edge="1" parent="1" source="7baba1c4bc27f4b0-10" target="7baba1c4bc27f4b0-16">
          <mxGeometry relative="1" as="geometry" />
        </mxCell>
        <mxCell id="qNvrEW012JE64xCaFdd--7" value="用户登录，携带应用id(appid)" style="edgeLabel;html=1;align=center;verticalAlign=middle;resizable=0;points=[];" vertex="1" connectable="0" parent="qNvrEW012JE64xCaFdd--6">
          <mxGeometry x="0.0811" y="1" relative="1" as="geometry">
            <mxPoint y="1" as="offset" />
          </mxGeometry>
        </mxCell>
        <mxCell id="qNvrEW012JE64xCaFdd--9" value="授权登录" style="edgeStyle=none;rounded=0;orthogonalLoop=1;jettySize=auto;html=1;" edge="1" parent="1" source="7baba1c4bc27f4b0-16">
          <mxGeometry relative="1" as="geometry">
            <mxPoint x="770" y="280" as="targetPoint" />
          </mxGeometry>
        </mxCell>
        <mxCell id="qNvrEW012JE64xCaFdd--17" style="rounded=0;orthogonalLoop=1;jettySize=auto;html=1;elbow=vertical;dashed=1;entryX=1.416;entryY=0.299;entryDx=0;entryDy=0;entryPerimeter=0;exitX=-0.216;exitY=0.743;exitDx=0;exitDy=0;exitPerimeter=0;" edge="1" parent="1" source="qNvrEW012JE64xCaFdd--8" target="7baba1c4bc27f4b0-10">
          <mxGeometry relative="1" as="geometry" />
        </mxCell>
        <mxCell id="qNvrEW012JE64xCaFdd--18" value="登录成功，下发授权code" style="edgeLabel;html=1;align=center;verticalAlign=middle;resizable=0;points=[];" vertex="1" connectable="0" parent="qNvrEW012JE64xCaFdd--17">
          <mxGeometry x="0.1533" relative="1" as="geometry">
            <mxPoint as="offset" />
          </mxGeometry>
        </mxCell>
        <mxCell id="qNvrEW012JE64xCaFdd--21" style="rounded=0;orthogonalLoop=1;jettySize=auto;html=1;elbow=vertical;exitX=1.1;exitY=0.383;exitDx=0;exitDy=0;exitPerimeter=0;" edge="1" parent="1" source="7baba1c4bc27f4b0-10" target="7baba1c4bc27f4b0-3">
          <mxGeometry relative="1" as="geometry">
            <mxPoint x="320" y="440" as="sourcePoint" />
            <mxPoint x="460" y="440" as="targetPoint" />
          </mxGeometry>
        </mxCell>
        <mxCell id="qNvrEW012JE64xCaFdd--22" value="code验证" style="edgeLabel;html=1;align=center;verticalAlign=middle;resizable=0;points=[];" vertex="1" connectable="0" parent="qNvrEW012JE64xCaFdd--21">
          <mxGeometry x="0.1391" relative="1" as="geometry">
            <mxPoint as="offset" />
          </mxGeometry>
        </mxCell>
        <mxCell id="qNvrEW012JE64xCaFdd--24" style="rounded=0;orthogonalLoop=1;jettySize=auto;html=1;elbow=vertical;exitX=0.995;exitY=0.111;exitDx=0;exitDy=0;exitPerimeter=0;entryX=-0.058;entryY=0.123;entryDx=0;entryDy=0;entryPerimeter=0;" edge="1" parent="1" source="qNvrEW012JE64xCaFdd--20" target="qNvrEW012JE64xCaFdd--23">
          <mxGeometry relative="1" as="geometry">
            <mxPoint x="480" y="450" as="sourcePoint" />
          </mxGeometry>
        </mxCell>
        <mxCell id="qNvrEW012JE64xCaFdd--25" value="code换取access_token" style="edgeLabel;html=1;align=center;verticalAlign=middle;resizable=0;points=[];" vertex="1" connectable="0" parent="qNvrEW012JE64xCaFdd--24">
          <mxGeometry x="0.2427" y="-1" relative="1" as="geometry">
            <mxPoint x="-21" y="-1" as="offset" />
          </mxGeometry>
        </mxCell>
        <mxCell id="qNvrEW012JE64xCaFdd--27" value="code换取access_token" style="edgeStyle=none;rounded=0;orthogonalLoop=1;jettySize=auto;html=1;elbow=vertical;exitX=1.1;exitY=0.3;exitDx=0;exitDy=0;exitPerimeter=0;" edge="1" parent="1" source="qNvrEW012JE64xCaFdd--23" target="qNvrEW012JE64xCaFdd--2">
          <mxGeometry relative="1" as="geometry" />
        </mxCell>
        <mxCell id="qNvrEW012JE64xCaFdd--29" style="edgeStyle=none;rounded=0;orthogonalLoop=1;jettySize=auto;html=1;elbow=vertical;dashed=1;" edge="1" parent="1" source="qNvrEW012JE64xCaFdd--26" target="7baba1c4bc27f4b0-4">
          <mxGeometry relative="1" as="geometry">
            <Array as="points">
              <mxPoint x="680" y="450" />
            </Array>
          </mxGeometry>
        </mxCell>
        <mxCell id="qNvrEW012JE64xCaFdd--30" value="返回token" style="edgeLabel;html=1;align=center;verticalAlign=middle;resizable=0;points=[];" vertex="1" connectable="0" parent="qNvrEW012JE64xCaFdd--29">
          <mxGeometry x="-0.3139" y="-1" relative="1" as="geometry">
            <mxPoint x="-18" as="offset" />
          </mxGeometry>
        </mxCell>
        <mxCell id="qNvrEW012JE64xCaFdd--31" style="rounded=0;orthogonalLoop=1;jettySize=auto;html=1;elbow=vertical;dashed=1;exitX=0.047;exitY=0.909;exitDx=0;exitDy=0;exitPerimeter=0;" edge="1" parent="1" source="qNvrEW012JE64xCaFdd--23">
          <mxGeometry relative="1" as="geometry">
            <mxPoint x="612" y="520" as="sourcePoint" />
            <mxPoint x="480" y="463" as="targetPoint" />
          </mxGeometry>
        </mxCell>
        <mxCell id="qNvrEW012JE64xCaFdd--32" value="返回token" style="edgeLabel;html=1;align=center;verticalAlign=middle;resizable=0;points=[];" vertex="1" connectable="0" parent="qNvrEW012JE64xCaFdd--31">
          <mxGeometry x="-0.3139" y="-1" relative="1" as="geometry">
            <mxPoint x="-18" as="offset" />
          </mxGeometry>
        </mxCell>
        <mxCell id="qNvrEW012JE64xCaFdd--35" style="edgeStyle=none;rounded=0;orthogonalLoop=1;jettySize=auto;html=1;entryX=0.5;entryY=0.105;entryDx=0;entryDy=0;entryPerimeter=0;elbow=vertical;" edge="1" parent="1" source="qNvrEW012JE64xCaFdd--20" target="qNvrEW012JE64xCaFdd--33">
          <mxGeometry relative="1" as="geometry" />
        </mxCell>
        <mxCell id="qNvrEW012JE64xCaFdd--36" value="用token查询用户" style="edgeLabel;html=1;align=center;verticalAlign=middle;resizable=0;points=[];" vertex="1" connectable="0" parent="qNvrEW012JE64xCaFdd--35">
          <mxGeometry x="0.2645" relative="1" as="geometry">
            <mxPoint x="-13" as="offset" />
          </mxGeometry>
        </mxCell>
        <mxCell id="qNvrEW012JE64xCaFdd--37" style="edgeStyle=none;rounded=0;orthogonalLoop=1;jettySize=auto;html=1;entryX=0;entryY=0.32;entryDx=0;entryDy=0;entryPerimeter=0;elbow=vertical;exitX=0.995;exitY=0.345;exitDx=0;exitDy=0;exitPerimeter=0;" edge="1" parent="1" source="qNvrEW012JE64xCaFdd--33" target="qNvrEW012JE64xCaFdd--34">
          <mxGeometry relative="1" as="geometry">
            <mxPoint x="640" y="522" as="sourcePoint" />
            <mxPoint x="795" y="570" as="targetPoint" />
          </mxGeometry>
        </mxCell>
        <mxCell id="qNvrEW012JE64xCaFdd--38" value="用token查询用户" style="edgeLabel;html=1;align=center;verticalAlign=middle;resizable=0;points=[];" vertex="1" connectable="0" parent="qNvrEW012JE64xCaFdd--37">
          <mxGeometry x="0.2645" relative="1" as="geometry">
            <mxPoint x="-13" as="offset" />
          </mxGeometry>
        </mxCell>
        <mxCell id="qNvrEW012JE64xCaFdd--41" style="rounded=0;orthogonalLoop=1;jettySize=auto;html=1;elbow=vertical;dashed=1;" edge="1" parent="1" target="7baba1c4bc27f4b0-3">
          <mxGeometry relative="1" as="geometry">
            <mxPoint x="630" y="560" as="sourcePoint" />
            <mxPoint x="645" y="610" as="targetPoint" />
          </mxGeometry>
        </mxCell>
        <mxCell id="qNvrEW012JE64xCaFdd--42" value="返回用户信息" style="edgeLabel;html=1;align=center;verticalAlign=middle;resizable=0;points=[];" vertex="1" connectable="0" parent="qNvrEW012JE64xCaFdd--41">
          <mxGeometry x="-0.3139" y="-1" relative="1" as="geometry">
            <mxPoint x="-18" as="offset" />
          </mxGeometry>
        </mxCell>
        <mxCell id="qNvrEW012JE64xCaFdd--44" style="rounded=0;orthogonalLoop=1;jettySize=auto;html=1;elbow=vertical;dashed=1;" edge="1" parent="1" target="7baba1c4bc27f4b0-2">
          <mxGeometry relative="1" as="geometry">
            <mxPoint x="470" y="600" as="sourcePoint" />
            <mxPoint x="320" y="670" as="targetPoint" />
          </mxGeometry>
        </mxCell>
        <mxCell id="qNvrEW012JE64xCaFdd--45" value="登录完成，下发登录态" style="edgeLabel;html=1;align=center;verticalAlign=middle;resizable=0;points=[];" vertex="1" connectable="0" parent="qNvrEW012JE64xCaFdd--44">
          <mxGeometry x="-0.3139" y="-1" relative="1" as="geometry">
            <mxPoint x="-18" y="-9" as="offset" />
          </mxGeometry>
        </mxCell>
      </root>
    </mxGraphModel>
  </diagram>
</mxfile>
